<mxfile host="Electron" modified="2023-05-22T10:36:20.717Z" agent="Mozilla/5.0 (X11; Linux x86_64) AppleWebKit/537.36 (KHTML, like Gecko) draw.io/21.2.8 Chrome/112.0.5615.165 Electron/24.2.0 Safari/537.36" etag="To0RmxPyJBpYf8kMrRUi" version="21.2.8" type="device">
  <diagram name="Page-1" id="KQ-Xf_K1zHx7-eHDhru5">
    <mxGraphModel dx="880" dy="526" grid="1" gridSize="10" guides="1" tooltips="1" connect="1" arrows="1" fold="1" page="1" pageScale="1" pageWidth="850" pageHeight="1100" math="0" shadow="0">
      <root>
        <mxCell id="0" />
        <mxCell id="1" parent="0" />
        <mxCell id="EAbZsNUZ0CyXFyYORpi1-27" value="" style="group" parent="1" vertex="1" connectable="0">
          <mxGeometry x="380" y="75" width="120" height="126" as="geometry" />
        </mxCell>
        <mxCell id="EAbZsNUZ0CyXFyYORpi1-133" value="" style="group" parent="EAbZsNUZ0CyXFyYORpi1-27" vertex="1" connectable="0">
          <mxGeometry width="120" height="85" as="geometry" />
        </mxCell>
        <mxCell id="EAbZsNUZ0CyXFyYORpi1-28" value="" style="shape=rhombus;html=1;dashed=0;whiteSpace=wrap;perimeter=rhombusPerimeter;" parent="EAbZsNUZ0CyXFyYORpi1-133" vertex="1">
          <mxGeometry width="120" height="85" as="geometry" />
        </mxCell>
        <mxCell id="EAbZsNUZ0CyXFyYORpi1-131" value="" style="rhombus;whiteSpace=wrap;html=1;" parent="EAbZsNUZ0CyXFyYORpi1-133" vertex="1">
          <mxGeometry x="10" y="7.5" width="100" height="70" as="geometry" />
        </mxCell>
        <mxCell id="EAbZsNUZ0CyXFyYORpi1-29" value="Possiede" style="text;html=1;strokeColor=none;fillColor=none;align=center;verticalAlign=middle;whiteSpace=wrap;rounded=0;fontStyle=1;fontSize=14;" parent="EAbZsNUZ0CyXFyYORpi1-133" vertex="1">
          <mxGeometry x="30" y="27.5" width="60" height="30" as="geometry" />
        </mxCell>
        <mxCell id="EAbZsNUZ0CyXFyYORpi1-4" value="" style="group" parent="1" vertex="1" connectable="0">
          <mxGeometry x="100" y="121" width="110" height="80" as="geometry" />
        </mxCell>
        <mxCell id="EAbZsNUZ0CyXFyYORpi1-5" value="" style="html=1;dashed=0;whiteSpace=wrap;" parent="EAbZsNUZ0CyXFyYORpi1-4" vertex="1">
          <mxGeometry width="100" height="50" as="geometry" />
        </mxCell>
        <mxCell id="EAbZsNUZ0CyXFyYORpi1-6" value="Collezionista" style="text;html=1;strokeColor=none;fillColor=none;align=center;verticalAlign=middle;whiteSpace=wrap;rounded=0;fontStyle=1;fontSize=14;" parent="EAbZsNUZ0CyXFyYORpi1-4" vertex="1">
          <mxGeometry x="20" y="10" width="60" height="30" as="geometry" />
        </mxCell>
        <mxCell id="EAbZsNUZ0CyXFyYORpi1-7" value="nickname" style="ellipse;whiteSpace=wrap;html=1;align=center;fontStyle=4;" parent="1" vertex="1">
          <mxGeometry x="175" y="196" width="100" height="40" as="geometry" />
        </mxCell>
        <mxCell id="EAbZsNUZ0CyXFyYORpi1-8" value="" style="endArrow=none;html=1;rounded=0;entryX=0.5;entryY=0;entryDx=0;entryDy=0;exitX=0.75;exitY=1;exitDx=0;exitDy=0;" parent="1" source="EAbZsNUZ0CyXFyYORpi1-5" target="EAbZsNUZ0CyXFyYORpi1-7" edge="1">
          <mxGeometry relative="1" as="geometry">
            <mxPoint x="160" y="186" as="sourcePoint" />
            <mxPoint x="130" y="286" as="targetPoint" />
          </mxGeometry>
        </mxCell>
        <mxCell id="EAbZsNUZ0CyXFyYORpi1-9" value="&lt;u&gt;email&lt;/u&gt;" style="ellipse;whiteSpace=wrap;html=1;align=center;" parent="1" vertex="1">
          <mxGeometry x="30" y="196" width="100" height="40" as="geometry" />
        </mxCell>
        <mxCell id="EAbZsNUZ0CyXFyYORpi1-10" value="" style="endArrow=none;html=1;rounded=0;entryX=0.5;entryY=0;entryDx=0;entryDy=0;exitX=0.25;exitY=1;exitDx=0;exitDy=0;" parent="1" source="EAbZsNUZ0CyXFyYORpi1-5" target="EAbZsNUZ0CyXFyYORpi1-9" edge="1">
          <mxGeometry relative="1" as="geometry">
            <mxPoint x="230" y="151" as="sourcePoint" />
            <mxPoint x="235" y="216" as="targetPoint" />
          </mxGeometry>
        </mxCell>
        <mxCell id="EAbZsNUZ0CyXFyYORpi1-13" value="&lt;u&gt;nome&lt;/u&gt;" style="ellipse;whiteSpace=wrap;html=1;align=center;" parent="1" vertex="1">
          <mxGeometry x="660" y="70" width="100" height="40" as="geometry" />
        </mxCell>
        <mxCell id="EAbZsNUZ0CyXFyYORpi1-14" value="" style="endArrow=none;html=1;rounded=0;entryX=0.5;entryY=0;entryDx=0;entryDy=0;exitX=0.5;exitY=1;exitDx=0;exitDy=0;" parent="1" source="EAbZsNUZ0CyXFyYORpi1-13" edge="1">
          <mxGeometry relative="1" as="geometry">
            <mxPoint x="830" y="160" as="sourcePoint" />
            <mxPoint x="670" y="150" as="targetPoint" />
          </mxGeometry>
        </mxCell>
        <mxCell id="EAbZsNUZ0CyXFyYORpi1-16" value="anno" style="ellipse;whiteSpace=wrap;html=1;align=center;" parent="1" vertex="1">
          <mxGeometry x="800" y="730" width="100" height="40" as="geometry" />
        </mxCell>
        <mxCell id="EAbZsNUZ0CyXFyYORpi1-17" value="genere" style="ellipse;whiteSpace=wrap;html=1;align=center;" parent="1" vertex="1">
          <mxGeometry x="375" y="315" width="100" height="40" as="geometry" />
        </mxCell>
        <mxCell id="EAbZsNUZ0CyXFyYORpi1-18" value="&lt;u&gt;titolo&lt;/u&gt;" style="ellipse;whiteSpace=wrap;html=1;align=center;" parent="1" vertex="1">
          <mxGeometry x="470" y="290" width="100" height="40" as="geometry" />
        </mxCell>
        <mxCell id="EAbZsNUZ0CyXFyYORpi1-20" value="barcode" style="ellipse;whiteSpace=wrap;html=1;align=center;" parent="1" vertex="1">
          <mxGeometry x="585" y="300" width="100" height="40" as="geometry" />
        </mxCell>
        <mxCell id="EAbZsNUZ0CyXFyYORpi1-21" value="" style="group" parent="1" vertex="1" connectable="0">
          <mxGeometry x="570" y="615" width="100" height="50" as="geometry" />
        </mxCell>
        <mxCell id="EAbZsNUZ0CyXFyYORpi1-22" value="" style="html=1;dashed=0;whiteSpace=wrap;" parent="EAbZsNUZ0CyXFyYORpi1-21" vertex="1">
          <mxGeometry width="100" height="50" as="geometry" />
        </mxCell>
        <mxCell id="EAbZsNUZ0CyXFyYORpi1-23" value="Traccia" style="text;html=1;strokeColor=none;fillColor=none;align=center;verticalAlign=middle;whiteSpace=wrap;rounded=0;fontStyle=1;fontSize=14;" parent="EAbZsNUZ0CyXFyYORpi1-21" vertex="1">
          <mxGeometry x="20" y="10" width="60" height="30" as="geometry" />
        </mxCell>
        <mxCell id="EAbZsNUZ0CyXFyYORpi1-24" value="&lt;u&gt;titolo&lt;/u&gt;" style="ellipse;whiteSpace=wrap;html=1;align=center;" parent="1" vertex="1">
          <mxGeometry x="665" y="705" width="100" height="40" as="geometry" />
        </mxCell>
        <mxCell id="EAbZsNUZ0CyXFyYORpi1-25" value="durata" style="ellipse;whiteSpace=wrap;html=1;align=center;" parent="1" vertex="1">
          <mxGeometry x="480" y="705" width="100" height="40" as="geometry" />
        </mxCell>
        <mxCell id="EAbZsNUZ0CyXFyYORpi1-26" value="visibilitÃ " style="ellipse;whiteSpace=wrap;html=1;align=center;" parent="1" vertex="1">
          <mxGeometry x="760" y="150" width="100" height="40" as="geometry" />
        </mxCell>
        <mxCell id="EAbZsNUZ0CyXFyYORpi1-30" value="" style="endArrow=none;html=1;rounded=0;entryX=1;entryY=0.5;entryDx=0;entryDy=0;exitX=0;exitY=0.5;exitDx=0;exitDy=0;" parent="1" source="EAbZsNUZ0CyXFyYORpi1-28" target="EAbZsNUZ0CyXFyYORpi1-5" edge="1">
          <mxGeometry relative="1" as="geometry">
            <mxPoint x="280" y="235" as="sourcePoint" />
            <mxPoint x="440" y="235" as="targetPoint" />
          </mxGeometry>
        </mxCell>
        <mxCell id="EAbZsNUZ0CyXFyYORpi1-31" value="(0, n)" style="text;html=1;strokeColor=none;fillColor=none;align=center;verticalAlign=middle;whiteSpace=wrap;rounded=0;" parent="1" vertex="1">
          <mxGeometry x="210" y="131" width="30" height="10" as="geometry" />
        </mxCell>
        <mxCell id="EAbZsNUZ0CyXFyYORpi1-32" value="" style="endArrow=none;html=1;rounded=0;entryX=0;entryY=0.5;entryDx=0;entryDy=0;exitX=1;exitY=0.5;exitDx=0;exitDy=0;" parent="1" source="EAbZsNUZ0CyXFyYORpi1-28" edge="1">
          <mxGeometry relative="1" as="geometry">
            <mxPoint x="730" y="188" as="sourcePoint" />
            <mxPoint x="620" y="175" as="targetPoint" />
          </mxGeometry>
        </mxCell>
        <mxCell id="EAbZsNUZ0CyXFyYORpi1-33" value="(1, 1)" style="text;html=1;strokeColor=none;fillColor=none;align=center;verticalAlign=middle;whiteSpace=wrap;rounded=0;" parent="1" vertex="1">
          <mxGeometry x="590" y="145" width="30" height="15" as="geometry" />
        </mxCell>
        <mxCell id="EAbZsNUZ0CyXFyYORpi1-34" value="" style="group" parent="1" vertex="1" connectable="0">
          <mxGeometry x="140" y="360" width="100" height="50" as="geometry" />
        </mxCell>
        <mxCell id="EAbZsNUZ0CyXFyYORpi1-35" value="" style="html=1;dashed=0;whiteSpace=wrap;" parent="EAbZsNUZ0CyXFyYORpi1-34" vertex="1">
          <mxGeometry width="100" height="50" as="geometry" />
        </mxCell>
        <mxCell id="EAbZsNUZ0CyXFyYORpi1-36" value="&lt;b&gt;&lt;font style=&quot;font-size: 14px;&quot;&gt;Artista&lt;/font&gt;&lt;/b&gt;" style="text;html=1;strokeColor=none;fillColor=none;align=center;verticalAlign=middle;whiteSpace=wrap;rounded=0;" parent="EAbZsNUZ0CyXFyYORpi1-34" vertex="1">
          <mxGeometry x="20" y="10" width="60" height="30" as="geometry" />
        </mxCell>
        <mxCell id="EAbZsNUZ0CyXFyYORpi1-43" value="" style="endArrow=none;html=1;rounded=0;entryX=0.5;entryY=0;entryDx=0;entryDy=0;exitX=0.5;exitY=1;exitDx=0;exitDy=0;" parent="1" source="EAbZsNUZ0CyXFyYORpi1-47" target="EAbZsNUZ0CyXFyYORpi1-35" edge="1">
          <mxGeometry relative="1" as="geometry">
            <mxPoint x="680" y="285" as="sourcePoint" />
            <mxPoint x="640" y="325" as="targetPoint" />
          </mxGeometry>
        </mxCell>
        <mxCell id="EAbZsNUZ0CyXFyYORpi1-44" value="" style="endArrow=none;html=1;rounded=0;entryX=0.5;entryY=0;entryDx=0;entryDy=0;exitX=0.5;exitY=1;exitDx=0;exitDy=0;" parent="1" source="EAbZsNUZ0CyXFyYORpi1-20" edge="1">
          <mxGeometry relative="1" as="geometry">
            <mxPoint x="730" y="295" as="sourcePoint" />
            <mxPoint x="620" y="360" as="targetPoint" />
          </mxGeometry>
        </mxCell>
        <mxCell id="EAbZsNUZ0CyXFyYORpi1-45" value="" style="endArrow=none;html=1;rounded=0;entryX=1;entryY=1;entryDx=0;entryDy=0;exitX=0.25;exitY=0;exitDx=0;exitDy=0;" parent="1" target="EAbZsNUZ0CyXFyYORpi1-18" edge="1">
          <mxGeometry relative="1" as="geometry">
            <mxPoint x="595" y="360" as="sourcePoint" />
            <mxPoint x="710" y="335" as="targetPoint" />
          </mxGeometry>
        </mxCell>
        <mxCell id="EAbZsNUZ0CyXFyYORpi1-46" value="" style="endArrow=none;html=1;rounded=0;entryX=0;entryY=1;entryDx=0;entryDy=0;exitX=1;exitY=0.25;exitDx=0;exitDy=0;" parent="1" source="EAbZsNUZ0CyXFyYORpi1-119" target="EAbZsNUZ0CyXFyYORpi1-121" edge="1">
          <mxGeometry relative="1" as="geometry">
            <mxPoint x="810" y="380" as="sourcePoint" />
            <mxPoint x="740" y="345" as="targetPoint" />
          </mxGeometry>
        </mxCell>
        <mxCell id="EAbZsNUZ0CyXFyYORpi1-47" value="nome" style="ellipse;whiteSpace=wrap;html=1;align=center;fontStyle=4;" parent="1" vertex="1">
          <mxGeometry x="140" y="315" width="100" height="40" as="geometry" />
        </mxCell>
        <mxCell id="EAbZsNUZ0CyXFyYORpi1-50" value="" style="endArrow=none;html=1;rounded=0;entryX=1;entryY=0.5;entryDx=0;entryDy=0;exitX=0;exitY=0.5;exitDx=0;exitDy=0;" parent="1" target="EAbZsNUZ0CyXFyYORpi1-17" edge="1">
          <mxGeometry relative="1" as="geometry">
            <mxPoint x="570" y="385" as="sourcePoint" />
            <mxPoint x="700" y="473" as="targetPoint" />
          </mxGeometry>
        </mxCell>
        <mxCell id="EAbZsNUZ0CyXFyYORpi1-51" value="" style="endArrow=none;html=1;rounded=0;entryX=0.5;entryY=0;entryDx=0;entryDy=0;exitX=0.5;exitY=1;exitDx=0;exitDy=0;" parent="1" source="EAbZsNUZ0CyXFyYORpi1-119" target="EAbZsNUZ0CyXFyYORpi1-16" edge="1">
          <mxGeometry relative="1" as="geometry">
            <mxPoint x="660" y="465" as="sourcePoint" />
            <mxPoint x="620" y="483" as="targetPoint" />
          </mxGeometry>
        </mxCell>
        <mxCell id="EAbZsNUZ0CyXFyYORpi1-52" value="" style="endArrow=none;html=1;rounded=0;exitX=0.75;exitY=1;exitDx=0;exitDy=0;entryX=0.5;entryY=0;entryDx=0;entryDy=0;" parent="1" source="EAbZsNUZ0CyXFyYORpi1-119" target="EAbZsNUZ0CyXFyYORpi1-122" edge="1">
          <mxGeometry relative="1" as="geometry">
            <mxPoint x="620" y="445" as="sourcePoint" />
            <mxPoint x="555" y="421" as="targetPoint" />
          </mxGeometry>
        </mxCell>
        <mxCell id="EAbZsNUZ0CyXFyYORpi1-53" value="" style="group" parent="1" vertex="1" connectable="0">
          <mxGeometry x="700" y="235" width="120" height="85" as="geometry" />
        </mxCell>
        <mxCell id="EAbZsNUZ0CyXFyYORpi1-54" value="" style="shape=rhombus;html=1;dashed=0;whiteSpace=wrap;perimeter=rhombusPerimeter;" parent="EAbZsNUZ0CyXFyYORpi1-53" vertex="1">
          <mxGeometry width="120" height="85" as="geometry" />
        </mxCell>
        <mxCell id="EAbZsNUZ0CyXFyYORpi1-55" value="Catalogo" style="text;html=1;strokeColor=none;fillColor=none;align=center;verticalAlign=middle;whiteSpace=wrap;rounded=0;fontStyle=1;fontSize=14;" parent="EAbZsNUZ0CyXFyYORpi1-53" vertex="1">
          <mxGeometry x="30" y="27.5" width="60" height="30" as="geometry" />
        </mxCell>
        <mxCell id="EAbZsNUZ0CyXFyYORpi1-56" value="" style="endArrow=none;html=1;rounded=0;entryX=0;entryY=0;entryDx=0;entryDy=0;exitX=0.5;exitY=1;exitDx=0;exitDy=0;" parent="1" target="EAbZsNUZ0CyXFyYORpi1-54" edge="1">
          <mxGeometry relative="1" as="geometry">
            <mxPoint x="670" y="200" as="sourcePoint" />
            <mxPoint x="520" y="280" as="targetPoint" />
          </mxGeometry>
        </mxCell>
        <mxCell id="EAbZsNUZ0CyXFyYORpi1-57" value="(0, n)" style="text;html=1;strokeColor=none;fillColor=none;align=center;verticalAlign=middle;whiteSpace=wrap;rounded=0;" parent="1" vertex="1">
          <mxGeometry x="590" y="196" width="30" height="15" as="geometry" />
        </mxCell>
        <mxCell id="EAbZsNUZ0CyXFyYORpi1-58" value="" style="endArrow=none;html=1;rounded=0;entryX=0;entryY=1;entryDx=0;entryDy=0;exitX=1;exitY=0;exitDx=0;exitDy=0;" parent="1" target="EAbZsNUZ0CyXFyYORpi1-54" edge="1">
          <mxGeometry relative="1" as="geometry">
            <mxPoint x="670" y="360" as="sourcePoint" />
            <mxPoint x="650" y="275" as="targetPoint" />
          </mxGeometry>
        </mxCell>
        <mxCell id="EAbZsNUZ0CyXFyYORpi1-59" value="(0, n)" style="text;html=1;strokeColor=none;fillColor=none;align=center;verticalAlign=middle;whiteSpace=wrap;rounded=0;" parent="1" vertex="1">
          <mxGeometry x="680" y="350" width="30" height="15" as="geometry" />
        </mxCell>
        <mxCell id="EAbZsNUZ0CyXFyYORpi1-63" value="" style="endArrow=none;html=1;rounded=0;entryX=1;entryY=0.5;entryDx=0;entryDy=0;exitX=0;exitY=0.5;exitDx=0;exitDy=0;" parent="1" target="EAbZsNUZ0CyXFyYORpi1-35" edge="1">
          <mxGeometry relative="1" as="geometry">
            <mxPoint x="310" y="387.5" as="sourcePoint" />
            <mxPoint x="320" y="240" as="targetPoint" />
          </mxGeometry>
        </mxCell>
        <mxCell id="EAbZsNUZ0CyXFyYORpi1-64" value="(1, n)" style="text;html=1;strokeColor=none;fillColor=none;align=center;verticalAlign=middle;whiteSpace=wrap;rounded=0;" parent="1" vertex="1">
          <mxGeometry x="245" y="365" width="30" height="10" as="geometry" />
        </mxCell>
        <mxCell id="EAbZsNUZ0CyXFyYORpi1-65" value="" style="endArrow=none;html=1;rounded=0;entryX=1;entryY=0.5;entryDx=0;entryDy=0;exitX=0;exitY=0.75;exitDx=0;exitDy=0;" parent="1" edge="1">
          <mxGeometry relative="1" as="geometry">
            <mxPoint x="570" y="397.5" as="sourcePoint" />
            <mxPoint x="430" y="387.5" as="targetPoint" />
          </mxGeometry>
        </mxCell>
        <mxCell id="EAbZsNUZ0CyXFyYORpi1-66" value="(1, 1)" style="text;html=1;strokeColor=none;fillColor=none;align=center;verticalAlign=middle;whiteSpace=wrap;rounded=0;" parent="1" vertex="1">
          <mxGeometry x="530" y="380" width="30" height="10" as="geometry" />
        </mxCell>
        <mxCell id="EAbZsNUZ0CyXFyYORpi1-67" value="" style="endArrow=none;html=1;rounded=0;entryX=1;entryY=0;entryDx=0;entryDy=0;exitX=0.25;exitY=1;exitDx=0;exitDy=0;" parent="1" source="EAbZsNUZ0CyXFyYORpi1-22" target="EAbZsNUZ0CyXFyYORpi1-25" edge="1">
          <mxGeometry relative="1" as="geometry">
            <mxPoint x="780" y="635" as="sourcePoint" />
            <mxPoint x="660" y="575" as="targetPoint" />
          </mxGeometry>
        </mxCell>
        <mxCell id="EAbZsNUZ0CyXFyYORpi1-68" value="" style="endArrow=none;html=1;rounded=0;entryX=0.75;entryY=1;entryDx=0;entryDy=0;exitX=0;exitY=0;exitDx=0;exitDy=0;" parent="1" source="EAbZsNUZ0CyXFyYORpi1-24" target="EAbZsNUZ0CyXFyYORpi1-22" edge="1">
          <mxGeometry relative="1" as="geometry">
            <mxPoint x="760" y="645" as="sourcePoint" />
            <mxPoint x="640" y="585" as="targetPoint" />
          </mxGeometry>
        </mxCell>
        <mxCell id="EAbZsNUZ0CyXFyYORpi1-69" value="" style="group" parent="1" vertex="1" connectable="0">
          <mxGeometry x="560" y="455" width="120" height="85" as="geometry" />
        </mxCell>
        <mxCell id="EAbZsNUZ0CyXFyYORpi1-70" value="" style="shape=rhombus;html=1;dashed=0;whiteSpace=wrap;perimeter=rhombusPerimeter;" parent="EAbZsNUZ0CyXFyYORpi1-69" vertex="1">
          <mxGeometry width="120" height="85" as="geometry" />
        </mxCell>
        <mxCell id="EAbZsNUZ0CyXFyYORpi1-71" value="Composta" style="text;html=1;strokeColor=none;fillColor=none;align=center;verticalAlign=middle;whiteSpace=wrap;rounded=0;fontStyle=1;fontSize=14;" parent="EAbZsNUZ0CyXFyYORpi1-69" vertex="1">
          <mxGeometry x="30" y="27.5" width="60" height="30" as="geometry" />
        </mxCell>
        <mxCell id="EAbZsNUZ0CyXFyYORpi1-72" value="" style="endArrow=none;html=1;rounded=0;entryX=0.5;entryY=0;entryDx=0;entryDy=0;exitX=0.5;exitY=1;exitDx=0;exitDy=0;" parent="1" target="EAbZsNUZ0CyXFyYORpi1-70" edge="1">
          <mxGeometry relative="1" as="geometry">
            <mxPoint x="620" y="410" as="sourcePoint" />
            <mxPoint x="620" y="566.5" as="targetPoint" />
          </mxGeometry>
        </mxCell>
        <mxCell id="EAbZsNUZ0CyXFyYORpi1-73" value="(1, n)" style="text;html=1;strokeColor=none;fillColor=none;align=center;verticalAlign=middle;whiteSpace=wrap;rounded=0;" parent="1" vertex="1">
          <mxGeometry x="620" y="415" width="30" height="15" as="geometry" />
        </mxCell>
        <mxCell id="EAbZsNUZ0CyXFyYORpi1-74" value="" style="endArrow=none;html=1;rounded=0;entryX=0.5;entryY=1;entryDx=0;entryDy=0;exitX=0.5;exitY=0;exitDx=0;exitDy=0;" parent="1" source="EAbZsNUZ0CyXFyYORpi1-22" target="EAbZsNUZ0CyXFyYORpi1-70" edge="1">
          <mxGeometry relative="1" as="geometry">
            <mxPoint x="770" y="646.5" as="sourcePoint" />
            <mxPoint x="750" y="561.5" as="targetPoint" />
          </mxGeometry>
        </mxCell>
        <mxCell id="EAbZsNUZ0CyXFyYORpi1-75" value="(1, 1)" style="text;html=1;strokeColor=none;fillColor=none;align=center;verticalAlign=middle;whiteSpace=wrap;rounded=0;" parent="1" vertex="1">
          <mxGeometry x="620" y="595" width="30" height="15" as="geometry" />
        </mxCell>
        <mxCell id="EAbZsNUZ0CyXFyYORpi1-76" value="" style="group" parent="1" vertex="1" connectable="0">
          <mxGeometry x="380" y="170" width="120" height="85" as="geometry" />
        </mxCell>
        <mxCell id="EAbZsNUZ0CyXFyYORpi1-77" value="" style="shape=rhombus;html=1;dashed=0;whiteSpace=wrap;perimeter=rhombusPerimeter;" parent="EAbZsNUZ0CyXFyYORpi1-76" vertex="1">
          <mxGeometry width="120" height="85" as="geometry" />
        </mxCell>
        <mxCell id="EAbZsNUZ0CyXFyYORpi1-78" value="Condivisa" style="text;html=1;strokeColor=none;fillColor=none;align=center;verticalAlign=middle;whiteSpace=wrap;rounded=0;fontStyle=1;fontSize=14;" parent="EAbZsNUZ0CyXFyYORpi1-76" vertex="1">
          <mxGeometry x="30" y="27.5" width="60" height="30" as="geometry" />
        </mxCell>
        <mxCell id="EAbZsNUZ0CyXFyYORpi1-79" value="" style="endArrow=none;html=1;rounded=0;entryX=1;entryY=0.75;entryDx=0;entryDy=0;exitX=0;exitY=0.5;exitDx=0;exitDy=0;" parent="1" source="EAbZsNUZ0CyXFyYORpi1-77" target="EAbZsNUZ0CyXFyYORpi1-5" edge="1">
          <mxGeometry relative="1" as="geometry">
            <mxPoint x="410" y="375" as="sourcePoint" />
            <mxPoint x="330" y="286" as="targetPoint" />
          </mxGeometry>
        </mxCell>
        <mxCell id="EAbZsNUZ0CyXFyYORpi1-80" value="(0, n)" style="text;html=1;strokeColor=none;fillColor=none;align=center;verticalAlign=middle;whiteSpace=wrap;rounded=0;" parent="1" vertex="1">
          <mxGeometry x="215" y="150" width="30" height="10" as="geometry" />
        </mxCell>
        <mxCell id="EAbZsNUZ0CyXFyYORpi1-81" value="" style="endArrow=none;html=1;rounded=0;entryX=0;entryY=0.75;entryDx=0;entryDy=0;exitX=1;exitY=0.5;exitDx=0;exitDy=0;" parent="1" source="EAbZsNUZ0CyXFyYORpi1-77" edge="1">
          <mxGeometry relative="1" as="geometry">
            <mxPoint x="860" y="328" as="sourcePoint" />
            <mxPoint x="620" y="187.5" as="targetPoint" />
          </mxGeometry>
        </mxCell>
        <mxCell id="EAbZsNUZ0CyXFyYORpi1-82" value="(1, n)" style="text;html=1;strokeColor=none;fillColor=none;align=center;verticalAlign=middle;whiteSpace=wrap;rounded=0;" parent="1" vertex="1">
          <mxGeometry x="695" y="205" width="30" height="15" as="geometry" />
        </mxCell>
        <mxCell id="EAbZsNUZ0CyXFyYORpi1-83" value="" style="endArrow=none;html=1;rounded=0;entryX=1;entryY=0.5;entryDx=0;entryDy=0;exitX=0;exitY=0.5;exitDx=0;exitDy=0;" parent="1" source="EAbZsNUZ0CyXFyYORpi1-26" edge="1">
          <mxGeometry relative="1" as="geometry">
            <mxPoint x="780" y="115" as="sourcePoint" />
            <mxPoint x="720" y="175" as="targetPoint" />
          </mxGeometry>
        </mxCell>
        <mxCell id="EAbZsNUZ0CyXFyYORpi1-86" value="etichetta" style="ellipse;whiteSpace=wrap;html=1;align=center;" parent="1" vertex="1">
          <mxGeometry x="975" y="510" width="100" height="40" as="geometry" />
        </mxCell>
        <mxCell id="EAbZsNUZ0CyXFyYORpi1-87" value="" style="endArrow=none;html=1;rounded=0;entryX=1;entryY=0;entryDx=0;entryDy=0;exitX=0.25;exitY=1;exitDx=0;exitDy=0;" parent="1" source="EAbZsNUZ0CyXFyYORpi1-103" target="EAbZsNUZ0CyXFyYORpi1-86" edge="1">
          <mxGeometry relative="1" as="geometry">
            <mxPoint x="959.7869342247734" y="469.19881684484926" as="sourcePoint" />
            <mxPoint x="905" y="401" as="targetPoint" />
          </mxGeometry>
        </mxCell>
        <mxCell id="EAbZsNUZ0CyXFyYORpi1-88" value="casa editrice" style="ellipse;whiteSpace=wrap;html=1;align=center;" parent="1" vertex="1">
          <mxGeometry x="810" y="582.5" width="100" height="40" as="geometry" />
        </mxCell>
        <mxCell id="EAbZsNUZ0CyXFyYORpi1-89" value="" style="endArrow=none;html=1;rounded=0;entryX=0.5;entryY=1;entryDx=0;entryDy=0;exitX=0.25;exitY=0;exitDx=0;exitDy=0;" parent="1" source="EAbZsNUZ0CyXFyYORpi1-119" target="EAbZsNUZ0CyXFyYORpi1-88" edge="1">
          <mxGeometry relative="1" as="geometry">
            <mxPoint x="840" y="465" as="sourcePoint" />
            <mxPoint x="920" y="476" as="targetPoint" />
          </mxGeometry>
        </mxCell>
        <mxCell id="EAbZsNUZ0CyXFyYORpi1-90" value="" style="group" parent="1" vertex="1" connectable="0">
          <mxGeometry x="370" y="475" width="120" height="85" as="geometry" />
        </mxCell>
        <mxCell id="EAbZsNUZ0CyXFyYORpi1-91" value="" style="shape=rhombus;html=1;dashed=0;whiteSpace=wrap;perimeter=rhombusPerimeter;" parent="EAbZsNUZ0CyXFyYORpi1-90" vertex="1">
          <mxGeometry width="120" height="85" as="geometry" />
        </mxCell>
        <mxCell id="EAbZsNUZ0CyXFyYORpi1-92" value="Contribuisce" style="text;html=1;strokeColor=none;fillColor=none;align=center;verticalAlign=middle;whiteSpace=wrap;rounded=0;fontStyle=1;fontSize=14;" parent="EAbZsNUZ0CyXFyYORpi1-90" vertex="1">
          <mxGeometry x="30" y="27.5" width="60" height="30" as="geometry" />
        </mxCell>
        <mxCell id="EAbZsNUZ0CyXFyYORpi1-93" value="" style="endArrow=none;html=1;rounded=0;entryX=1;entryY=0.75;entryDx=0;entryDy=0;exitX=0;exitY=0;exitDx=0;exitDy=0;" parent="1" source="EAbZsNUZ0CyXFyYORpi1-91" target="EAbZsNUZ0CyXFyYORpi1-35" edge="1">
          <mxGeometry relative="1" as="geometry">
            <mxPoint x="380" y="465" as="sourcePoint" />
            <mxPoint x="310" y="462" as="targetPoint" />
          </mxGeometry>
        </mxCell>
        <mxCell id="EAbZsNUZ0CyXFyYORpi1-94" value="" style="endArrow=none;html=1;rounded=0;entryX=1;entryY=1;entryDx=0;entryDy=0;exitX=0.25;exitY=0;exitDx=0;exitDy=0;" parent="1" source="EAbZsNUZ0CyXFyYORpi1-22" target="EAbZsNUZ0CyXFyYORpi1-91" edge="1">
          <mxGeometry relative="1" as="geometry">
            <mxPoint x="310" y="595" as="sourcePoint" />
            <mxPoint x="240" y="592" as="targetPoint" />
          </mxGeometry>
        </mxCell>
        <mxCell id="EAbZsNUZ0CyXFyYORpi1-95" value="(0, n)" style="text;html=1;strokeColor=none;fillColor=none;align=center;verticalAlign=middle;whiteSpace=wrap;rounded=0;" parent="1" vertex="1">
          <mxGeometry x="250" y="395" width="30" height="10" as="geometry" />
        </mxCell>
        <mxCell id="EAbZsNUZ0CyXFyYORpi1-96" value="(0, n)" style="text;html=1;strokeColor=none;fillColor=none;align=center;verticalAlign=middle;whiteSpace=wrap;rounded=0;" parent="1" vertex="1">
          <mxGeometry x="540" y="605" width="30" height="10" as="geometry" />
        </mxCell>
        <mxCell id="EAbZsNUZ0CyXFyYORpi1-97" value="quantitÃ " style="ellipse;whiteSpace=wrap;html=1;align=center;" parent="1" vertex="1">
          <mxGeometry x="860" y="265" width="100" height="40" as="geometry" />
        </mxCell>
        <mxCell id="EAbZsNUZ0CyXFyYORpi1-98" value="" style="endArrow=none;html=1;rounded=0;entryX=0;entryY=0.5;entryDx=0;entryDy=0;exitX=1;exitY=0.5;exitDx=0;exitDy=0;" parent="1" source="EAbZsNUZ0CyXFyYORpi1-54" target="EAbZsNUZ0CyXFyYORpi1-97" edge="1">
          <mxGeometry relative="1" as="geometry">
            <mxPoint x="850" y="335" as="sourcePoint" />
            <mxPoint x="850" y="360" as="targetPoint" />
          </mxGeometry>
        </mxCell>
        <mxCell id="EAbZsNUZ0CyXFyYORpi1-99" value="copertina" style="ellipse;whiteSpace=wrap;html=1;align=center;" parent="1" vertex="1">
          <mxGeometry x="750" y="350" width="100" height="40" as="geometry" />
        </mxCell>
        <mxCell id="EAbZsNUZ0CyXFyYORpi1-101" value="" style="endArrow=none;html=1;rounded=0;entryX=1;entryY=0.25;entryDx=0;entryDy=0;exitX=0;exitY=0.5;exitDx=0;exitDy=0;" parent="1" source="EAbZsNUZ0CyXFyYORpi1-99" edge="1">
          <mxGeometry relative="1" as="geometry">
            <mxPoint x="700" y="590" as="sourcePoint" />
            <mxPoint x="670" y="372.5" as="targetPoint" />
          </mxGeometry>
        </mxCell>
        <mxCell id="EAbZsNUZ0CyXFyYORpi1-102" value="" style="group" parent="1" vertex="1" connectable="0">
          <mxGeometry x="975" y="425" width="100" height="50" as="geometry" />
        </mxCell>
        <mxCell id="EAbZsNUZ0CyXFyYORpi1-103" value="" style="html=1;dashed=0;whiteSpace=wrap;" parent="EAbZsNUZ0CyXFyYORpi1-102" vertex="1">
          <mxGeometry width="100" height="50" as="geometry" />
        </mxCell>
        <mxCell id="EAbZsNUZ0CyXFyYORpi1-104" value="Immagine" style="text;html=1;strokeColor=none;fillColor=none;align=center;verticalAlign=middle;whiteSpace=wrap;rounded=0;fontStyle=1;fontSize=14;" parent="EAbZsNUZ0CyXFyYORpi1-102" vertex="1">
          <mxGeometry x="20" y="10" width="60" height="30" as="geometry" />
        </mxCell>
        <mxCell id="EAbZsNUZ0CyXFyYORpi1-111" value="" style="endArrow=none;html=1;rounded=0;entryX=0;entryY=0;entryDx=0;entryDy=0;exitX=1;exitY=0.75;exitDx=0;exitDy=0;" parent="1" edge="1">
          <mxGeometry relative="1" as="geometry">
            <mxPoint x="670" y="397.5" as="sourcePoint" />
            <mxPoint x="840" y="431.25" as="targetPoint" />
          </mxGeometry>
        </mxCell>
        <mxCell id="EAbZsNUZ0CyXFyYORpi1-112" value="" style="endArrow=none;html=1;rounded=0;entryX=0;entryY=0.5;entryDx=0;entryDy=0;exitX=1;exitY=0.5;exitDx=0;exitDy=0;" parent="1" target="EAbZsNUZ0CyXFyYORpi1-103" edge="1">
          <mxGeometry relative="1" as="geometry">
            <mxPoint x="930" y="452.5" as="sourcePoint" />
            <mxPoint x="810" y="405" as="targetPoint" />
          </mxGeometry>
        </mxCell>
        <mxCell id="EAbZsNUZ0CyXFyYORpi1-113" value="(1, 1)" style="text;html=1;strokeColor=none;fillColor=none;align=center;verticalAlign=middle;whiteSpace=wrap;rounded=0;" parent="1" vertex="1">
          <mxGeometry x="945" y="430" width="30" height="15" as="geometry" />
        </mxCell>
        <mxCell id="EAbZsNUZ0CyXFyYORpi1-114" value="(0, n)" style="text;html=1;strokeColor=none;fillColor=none;align=center;verticalAlign=middle;whiteSpace=wrap;rounded=0;" parent="1" vertex="1">
          <mxGeometry x="680" y="380" width="30" height="15" as="geometry" />
        </mxCell>
        <mxCell id="EAbZsNUZ0CyXFyYORpi1-116" value="tipo" style="ellipse;whiteSpace=wrap;html=1;align=center;" parent="1" vertex="1">
          <mxGeometry x="140" y="435" width="100" height="40" as="geometry" />
        </mxCell>
        <mxCell id="EAbZsNUZ0CyXFyYORpi1-117" value="" style="endArrow=none;html=1;rounded=0;entryX=0.5;entryY=0;entryDx=0;entryDy=0;exitX=0.5;exitY=1;exitDx=0;exitDy=0;" parent="1" source="EAbZsNUZ0CyXFyYORpi1-35" target="EAbZsNUZ0CyXFyYORpi1-116" edge="1">
          <mxGeometry relative="1" as="geometry">
            <mxPoint x="290" y="490" as="sourcePoint" />
            <mxPoint x="130" y="392" as="targetPoint" />
          </mxGeometry>
        </mxCell>
        <mxCell id="EAbZsNUZ0CyXFyYORpi1-118" value="" style="group" parent="1" vertex="1" connectable="0">
          <mxGeometry x="800" y="640" width="100" height="50" as="geometry" />
        </mxCell>
        <mxCell id="EAbZsNUZ0CyXFyYORpi1-119" value="" style="html=1;dashed=0;whiteSpace=wrap;" parent="EAbZsNUZ0CyXFyYORpi1-118" vertex="1">
          <mxGeometry width="100" height="50" as="geometry" />
        </mxCell>
        <mxCell id="EAbZsNUZ0CyXFyYORpi1-120" value="Info_Disco" style="text;html=1;strokeColor=none;fillColor=none;align=center;verticalAlign=middle;whiteSpace=wrap;rounded=0;fontStyle=1;fontSize=14;" parent="EAbZsNUZ0CyXFyYORpi1-118" vertex="1">
          <mxGeometry x="20" y="10" width="60" height="30" as="geometry" />
        </mxCell>
        <mxCell id="EAbZsNUZ0CyXFyYORpi1-121" value="formato" style="ellipse;whiteSpace=wrap;html=1;align=center;" parent="1" vertex="1">
          <mxGeometry x="930" y="615" width="100" height="40" as="geometry" />
        </mxCell>
        <mxCell id="EAbZsNUZ0CyXFyYORpi1-122" value="stato" style="ellipse;whiteSpace=wrap;html=1;align=center;" parent="1" vertex="1">
          <mxGeometry x="900" y="720" width="100" height="40" as="geometry" />
        </mxCell>
        <mxCell id="EAbZsNUZ0CyXFyYORpi1-126" value="" style="endArrow=none;html=1;rounded=0;entryX=0;entryY=0;entryDx=0;entryDy=0;exitX=1;exitY=1;exitDx=0;exitDy=0;" parent="1" edge="1">
          <mxGeometry relative="1" as="geometry">
            <mxPoint x="670" y="410" as="sourcePoint" />
            <mxPoint x="720" y="501.25" as="targetPoint" />
          </mxGeometry>
        </mxCell>
        <mxCell id="EAbZsNUZ0CyXFyYORpi1-127" value="" style="endArrow=none;html=1;rounded=0;entryX=0;entryY=0;entryDx=0;entryDy=0;exitX=0.5;exitY=1;exitDx=0;exitDy=0;" parent="1" target="EAbZsNUZ0CyXFyYORpi1-119" edge="1">
          <mxGeometry relative="1" as="geometry">
            <mxPoint x="750" y="565" as="sourcePoint" />
            <mxPoint x="930" y="643" as="targetPoint" />
          </mxGeometry>
        </mxCell>
        <mxCell id="EAbZsNUZ0CyXFyYORpi1-128" value="(1, 1)" style="text;html=1;strokeColor=none;fillColor=none;align=center;verticalAlign=middle;whiteSpace=wrap;rounded=0;" parent="1" vertex="1">
          <mxGeometry x="680" y="415" width="30" height="15" as="geometry" />
        </mxCell>
        <mxCell id="EAbZsNUZ0CyXFyYORpi1-129" value="(1, 1)" style="text;html=1;strokeColor=none;fillColor=none;align=center;verticalAlign=middle;whiteSpace=wrap;rounded=0;" parent="1" vertex="1">
          <mxGeometry x="765" y="627.5" width="30" height="15" as="geometry" />
        </mxCell>
        <mxCell id="EAbZsNUZ0CyXFyYORpi1-130" value="&lt;b&gt;&lt;font style=&quot;font-size: 14px;&quot;&gt;Collezione&lt;/font&gt;&lt;/b&gt;" style="shape=ext;margin=3;double=1;whiteSpace=wrap;html=1;align=center;" parent="1" vertex="1">
          <mxGeometry x="620" y="150" width="100" height="51" as="geometry" />
        </mxCell>
        <mxCell id="EAbZsNUZ0CyXFyYORpi1-132" value="&lt;b&gt;&lt;font style=&quot;font-size: 14px;&quot;&gt;Disco&lt;/font&gt;&lt;/b&gt;" style="shape=ext;margin=3;double=1;whiteSpace=wrap;html=1;align=center;" parent="1" vertex="1">
          <mxGeometry x="570" y="362" width="100" height="51" as="geometry" />
        </mxCell>
        <mxCell id="EAbZsNUZ0CyXFyYORpi1-134" value="" style="group" parent="1" vertex="1" connectable="0">
          <mxGeometry x="310" y="350" width="120" height="85" as="geometry" />
        </mxCell>
        <mxCell id="EAbZsNUZ0CyXFyYORpi1-135" value="" style="shape=rhombus;html=1;dashed=0;whiteSpace=wrap;perimeter=rhombusPerimeter;" parent="EAbZsNUZ0CyXFyYORpi1-134" vertex="1">
          <mxGeometry width="120" height="85" as="geometry" />
        </mxCell>
        <mxCell id="EAbZsNUZ0CyXFyYORpi1-136" value="" style="rhombus;whiteSpace=wrap;html=1;" parent="EAbZsNUZ0CyXFyYORpi1-134" vertex="1">
          <mxGeometry x="10" y="7.5" width="100" height="70" as="geometry" />
        </mxCell>
        <mxCell id="EAbZsNUZ0CyXFyYORpi1-137" value="Autore" style="text;html=1;strokeColor=none;fillColor=none;align=center;verticalAlign=middle;whiteSpace=wrap;rounded=0;fontStyle=1;fontSize=14;" parent="EAbZsNUZ0CyXFyYORpi1-134" vertex="1">
          <mxGeometry x="30" y="27.5" width="60" height="30" as="geometry" />
        </mxCell>
        <mxCell id="EAbZsNUZ0CyXFyYORpi1-138" value="" style="group" parent="1" vertex="1" connectable="0">
          <mxGeometry x="675" y="487" width="120" height="126" as="geometry" />
        </mxCell>
        <mxCell id="EAbZsNUZ0CyXFyYORpi1-139" value="" style="group" parent="EAbZsNUZ0CyXFyYORpi1-138" vertex="1" connectable="0">
          <mxGeometry width="120" height="85" as="geometry" />
        </mxCell>
        <mxCell id="EAbZsNUZ0CyXFyYORpi1-140" value="" style="shape=rhombus;html=1;dashed=0;whiteSpace=wrap;perimeter=rhombusPerimeter;" parent="EAbZsNUZ0CyXFyYORpi1-139" vertex="1">
          <mxGeometry width="120" height="85" as="geometry" />
        </mxCell>
        <mxCell id="EAbZsNUZ0CyXFyYORpi1-141" value="" style="rhombus;whiteSpace=wrap;html=1;" parent="EAbZsNUZ0CyXFyYORpi1-139" vertex="1">
          <mxGeometry x="10" y="7.5" width="100" height="70" as="geometry" />
        </mxCell>
        <mxCell id="EAbZsNUZ0CyXFyYORpi1-142" value="Dettagli" style="text;html=1;strokeColor=none;fillColor=none;align=center;verticalAlign=middle;whiteSpace=wrap;rounded=0;fontStyle=1;fontSize=14;" parent="EAbZsNUZ0CyXFyYORpi1-139" vertex="1">
          <mxGeometry x="30" y="27.5" width="60" height="30" as="geometry" />
        </mxCell>
        <mxCell id="EAbZsNUZ0CyXFyYORpi1-143" value="" style="group" parent="1" vertex="1" connectable="0">
          <mxGeometry x="910" y="530" width="120" height="126" as="geometry" />
        </mxCell>
        <mxCell id="EAbZsNUZ0CyXFyYORpi1-144" value="" style="group" parent="EAbZsNUZ0CyXFyYORpi1-143" vertex="1" connectable="0">
          <mxGeometry x="-80" y="-130" width="120" height="85" as="geometry" />
        </mxCell>
        <mxCell id="EAbZsNUZ0CyXFyYORpi1-145" value="" style="shape=rhombus;html=1;dashed=0;whiteSpace=wrap;perimeter=rhombusPerimeter;" parent="EAbZsNUZ0CyXFyYORpi1-144" vertex="1">
          <mxGeometry width="120" height="85" as="geometry" />
        </mxCell>
        <mxCell id="EAbZsNUZ0CyXFyYORpi1-146" value="" style="rhombus;whiteSpace=wrap;html=1;" parent="EAbZsNUZ0CyXFyYORpi1-144" vertex="1">
          <mxGeometry x="10" y="7.5" width="100" height="70" as="geometry" />
        </mxCell>
        <mxCell id="EAbZsNUZ0CyXFyYORpi1-147" value="Allegati" style="text;html=1;strokeColor=none;fillColor=none;align=center;verticalAlign=middle;whiteSpace=wrap;rounded=0;fontStyle=1;fontSize=14;" parent="EAbZsNUZ0CyXFyYORpi1-144" vertex="1">
          <mxGeometry x="30" y="27.5" width="60" height="30" as="geometry" />
        </mxCell>
      </root>
    </mxGraphModel>
  </diagram>
</mxfile>
